<svg height="512" viewBox="0 0 512 512" width="512" xmlns="http://www.w3.org/2000/svg"><g id="Flat"><path d="m224 120h56v80h-56z" fill="#93d5f0"/><path d="m240 56h32v64h-32z" fill="#93d5f0"/><path d="m240 136h40v16h-40z" fill="#5d8bcc"/><path d="m248 168h48v320h-48z" fill="#93d5f0"/><path d="m264 184h32v16h-32z" fill="#5d8bcc"/><path d="m264 208h32v16h-32z" fill="#5d8bcc"/><path d="m264 232h32v16h-32z" fill="#5d8bcc"/><path d="m208 200h40v288h-40z" fill="#93d5f0"/><path d="m280 264h40v224h-40z" fill="#93d5f0"/><path d="m248 16h16v40h-16z" fill="#93d5f0"/><g fill="#5d8bcc"><path d="m296 280h24v16h-24z"/><path d="m296 304h24v16h-24z"/><path d="m208 264h24v16h-24z"/><path d="m208 240h24v16h-24z"/><path d="m208 216h24v16h-24z"/></g><path d="m240 112h32v8h-32z" fill="#37a7cc"/><path d="m240 200v-40h40v8h-32v32z" fill="#37a7cc"/><path d="m296 256h-24v232h8v-224h16z" fill="#37a7cc"/><path d="m304 336h40v152h-40z" fill="#93d5f0"/><path d="m304 488v-152h16v-8h-24v160z" fill="#37a7cc"/><path d="m320 352h24v16h-24z" fill="#5d8bcc"/><path d="m320 376h24v16h-24z" fill="#5d8bcc"/><path d="m352 456h32v32h-32z" fill="#93d5f0" transform="matrix(-1 0 0 -1 736 944)"/><path d="m328 408h40v80h-40z" fill="#93d5f0"/><path d="m344 424h24v16h-24z" fill="#5d8bcc"/><path d="m344 448h24v8h-16v32h-8z" fill="#37a7cc"/><path d="m320 400h24v8h-16v80h-8z" fill="#37a7cc"/><path d="m184 296h40v192h-40z" fill="#93d5f0"/><path d="m184 312h24v16h-24z" fill="#5d8bcc"/><path d="m160 344h40v144h-40z" fill="#93d5f0"/><path d="m160 360h24v16h-24z" fill="#5d8bcc"/><path d="m160 384h24v16h-24z" fill="#5d8bcc"/><path d="m128 416h48v72h-48z" fill="#93d5f0"/><path d="m128 432h32v16h-32z" fill="#5d8bcc"/><path d="m128 456h32v16h-32z" fill="#5d8bcc"/><path d="m248 48h16v8h-16z" fill="#37a7cc"/><path d="m224 200v-8h32v296h-8v-288z" fill="#37a7cc"/><path d="m208 288v8h16v192h8v-200z" fill="#37a7cc"/><path d="m184 344v-8h24v152h-8v-144z" fill="#37a7cc"/><path d="m160 416v-8h24v80h-8v-72z" fill="#37a7cc"/></g></svg>